<svg width="128" height="128" viewBox="0 0 128 128" xmlns="http://www.w3.org/2000/svg">
  <rect width="128" height="128" rx="24" fill="#324A3E"/>
  
      <rect x="22" y="82"  width="18" height="24" rx="3" fill="rgb(143,168,120)"/>
      <rect x="55" y="64"  width="18" height="42" rx="3" fill="rgb(125,155,111)"/>
      <rect x="88" y="42"  width="18" height="64" rx="3" fill="rgb(112,146,105)"/>
    <path d="M18 106H110" stroke="#4A7656" stroke-width="3" stroke-linecap="round"/>
  
      <!-- left wing piece -->
      <path d="M 35 59 C 26 63, 17 65, 7 64 C 14 73, 23 80, 35 86 C 40 77, 40 68, 35 59 Z" fill="#05070A"/>
      <!-- main body (original head/beak bulge preserved, smooth bottom — no leg) -->
      <path d="M 28 82 C 28 72, 32 62, 40 52 C 49 41, 62 33, 79 29 C 75 38, 74 46, 77 53 C 84 54, 91 57, 97 61 C 88 63, 80 67, 73 72 C 71 86, 60 95, 45 96 C 35 96, 28 90, 28 82 Z" fill="#05070A"/>
      <!-- beak (restored from uploads/icon.svg) -->
      <path d="M 60 43 C 71 36, 84 34, 99 36 L 73 55 Z" fill="#05070A"/>
      <!-- wing detail -->
      <path d="M 45 57 C 49 63, 52 70, 53 78 C 44 75, 36 71, 30 65 C 36 62, 40 60, 45 57 Z" fill="#1F2933"/>
      <!-- back feather marks -->
      <path d="M30 78V82 M38 78V82" stroke="#05070A" stroke-width="5" stroke-linecap="round"/>
      <!-- wing highlight -->
      <path d="M55 56C51 63, 50 70, 52 77" stroke="#F5F1E8" stroke-width="3.50" stroke-linecap="round" fill="none" opacity="0.45"/>
      <!-- eye -->
      <circle cx="65" cy="48" r="3" fill="#D69E2E"/>
    
</svg>